<?xml version="1.0" encoding="utf-8"?>
<!-- Generator: Adobe Illustrator 16.0.0, SVG Export Plug-In . SVG Version: 6.00 Build 0)  -->
<!DOCTYPE svg PUBLIC "-//W3C//DTD SVG 1.1//EN" "http://www.w3.org/Graphics/SVG/1.1/DTD/svg11.dtd">
<svg version="1.1" id="Layer_1" xmlns="http://www.w3.org/2000/svg" xmlns:xlink="http://www.w3.org/1999/xlink" x="0px" y="0px"
	 width="1300px" height="424px" viewBox="0 75 1300 424" enable-background="new 0 75 1300 424" xml:space="preserve">
<title>wave_background</title>
<desc>Created with Sketch.</desc>
<g id="Ressource">
	<g id="wave_background">
		<g id="Group-4">
			<path id="Wave" opacity="0.15" fill="#C4C4C4" enable-background="new    " d="M0,0h1300c-0.156,99.066-0.156,259.046,0,479.939
				c-360.621,42.35-321.107-40.244-650-28.987c-328.894,11.257-343.411,60.248-650,0C1,327.508,1,177.191,0,0z"/>
			
				<radialGradient id="Wave_2_" cx="344.8303" cy="644.9922" r="1.478" gradientTransform="matrix(439.0415 -155.1758 155.1757 439.0417 -251698.4375 -229156.0938)" gradientUnits="userSpaceOnUse">
				<stop  offset="0" style="stop-color:#0069FF"/>
				<stop  offset="0.0291" style="stop-color:#0269FD"/>
				<stop  offset="0.0451" style="stop-color:#0369FC"/>
				<stop  offset="0.0601" style="stop-color:#0468FB"/>
				<stop  offset="0.2548" style="stop-color:#1165EF"/>
				<stop  offset="1" style="stop-color:#4457C0"/>
			</radialGradient>
			<path id="Wave_1_" fill="url(#Wave_2_)" d="M1302,0H377.299H1c0,223.961,0,366.85,0,428.667
				c80.396-11.923,154.187-29.332,343.719-11.923c189.531,17.411,256.457,87.045,531.959,21.03
				c183.669-44.01,325.442-40.771,425.322,9.716V0z"/>
		</g>
	</g>
</g>
</svg>
