<?xml version="1.0" standalone="no"?>
<!DOCTYPE svg PUBLIC "-//W3C//DTD SVG 20010904//EN"
 "http://www.w3.org/TR/2001/REC-SVG-20010904/DTD/svg10.dtd">
<svg version="1.0" xmlns="http://www.w3.org/2000/svg"
 width="1000.000000pt" height="1000.000000pt" viewBox="0 0 1000.000000 1000.000000"
 preserveAspectRatio="xMidYMid meet">
<metadata>
Created by potrace 1.11, written by Peter Selinger 2001-2013
</metadata>
<g transform="translate(0.000000,1000.000000) scale(0.100000,-0.100000)"
fill="#000000" stroke="none">
<path d="M5681 7489 c-181 -30 -363 -166 -444 -331 -59 -120 -70 -198 -62
-448 12 -427 26 -737 65 -1410 45 -776 63 -1175 58 -1238 l-3 -43 -70 42 c-38
23 -95 61 -125 85 -76 59 -116 74 -202 74 -86 0 -144 -23 -201 -78 -66 -63
-82 -104 -82 -207 0 -80 3 -96 29 -144 15 -30 53 -81 83 -112 52 -54 56 -57
86 -48 98 29 328 -2 532 -72 140 -48 200 -52 263 -20 50 25 92 85 98 138 2 21
8 184 14 363 12 353 25 613 70 1395 28 492 42 773 56 1183 l6 192 47 0 c109 0
677 22 1061 40 228 10 502 22 609 26 l194 7 -6 -303 c-4 -167 -7 -434 -7 -595
l0 -291 -302 -17 c-306 -18 -723 -54 -956 -82 -137 -17 -159 -26 -200 -86 -20
-28 -23 -44 -20 -91 5 -75 38 -124 88 -132 188 -29 744 -79 1148 -102 254 -14
289 -14 357 -1 206 42 368 195 420 397 15 57 17 127 16 590 -2 635 -10 812
-39 893 -56 155 -185 281 -345 337 -53 19 -97 23 -302 31 -132 5 -431 18 -665
29 -450 22 -1002 40 -1135 39 -44 -1 -104 -5 -134 -10z"/>
<path d="M1905 7333 c-53 -19 -102 -49 -147 -91 l-28 -26 0 -775 c0 -855 0
-853 62 -979 73 -149 242 -271 405 -291 76 -10 1945 3 2063 14 146 14 257 64
348 159 110 114 142 207 142 410 0 224 -36 979 -60 1263 -9 115 -28 158 -84
192 -61 38 -192 19 -237 -35 -20 -24 -56 -574 -79 -1203 -7 -189 -13 -269 -22
-278 -10 -10 -143 -10 -658 -2 -355 5 -800 11 -990 12 l-345 2 -5 730 c-5 727
-5 730 -27 771 -24 45 -76 95 -126 120 -48 25 -152 28 -212 7z"/>
<path d="M3213 6530 c-23 -3 -63 -19 -89 -36 -161 -99 -149 -347 20 -437 58
-30 174 -30 231 0 177 94 182 352 9 445 -54 28 -108 37 -171 28z"/>
<path d="M6743 6530 c-61 -9 -133 -58 -167 -114 -24 -39 -31 -63 -34 -116 -5
-83 8 -124 54 -179 119 -139 334 -113 417 49 25 49 28 63 24 125 -4 78 -21
117 -69 166 -56 56 -140 82 -225 69z"/>
<path d="M3859 2441 c-93 -19 -175 -98 -204 -194 -15 -52 -19 -168 -7 -199 14
-34 198 -159 337 -228 281 -140 551 -200 895 -200 476 0 909 139 1226 394 80
64 104 99 104 150 0 51 -64 113 -122 118 -13 1 -50 -16 -83 -39 -417 -283
-1090 -316 -1591 -79 -107 51 -193 107 -287 188 -38 32 -84 65 -103 73 -45 18
-119 26 -165 16z"/>
</g>
</svg>
