<?xml version="1.0" encoding="UTF-8" standalone="no"?>
<svg width="21px" height="23px" viewBox="0 0 21 23" version="1.1" xmlns="http://www.w3.org/2000/svg" xmlns:xlink="http://www.w3.org/1999/xlink">
    <!-- Generator: Sketch 44.1 (41455) - http://www.bohemiancoding.com/sketch -->
    <title>Android_ico</title>
    <desc>Created with Sketch.</desc>
    <defs></defs>
    <g id="NDW" stroke="none" stroke-width="1" fill="none" fill-rule="evenodd">
        <g id="home-larg" transform="translate(-301.000000, -384.000000)" fill="#DFE8F3">
            <g id="Group-4" transform="translate(37.000000, 151.000000)">
                <g id="Group-2-Copy-5" transform="translate(205.000000, 0.000000)">
                    <path d="M65.711675,251.164521 C65.3327073,251.164521 65.000937,251.173818 64.669938,251.16275 C63.7293053,251.131241 63.0726285,250.511615 63.0695437,249.609737 C63.0592868,246.671587 63.0655335,243.733437 63.0664589,240.795287 C63.0664589,240.734704 63.0778727,240.674195 63.0868957,240.584465 L76.1791726,240.584465 L76.1791726,240.983159 C76.1791726,243.773874 76.1799438,246.564516 76.1788641,249.355083 C76.1783242,250.561203 75.5819553,251.143269 74.3281383,251.164078 C74.0723313,251.168358 73.8162929,251.164742 73.5081985,251.164742 C73.5081985,251.524549 73.5081985,251.863841 73.5081985,252.202986 C73.5081214,252.854564 73.5110519,253.506141 73.507273,254.157719 C73.5024145,254.986912 72.909593,255.589862 72.095977,255.599823 C71.2237498,255.610523 70.6024711,255.029047 70.5899777,254.167017 C70.5780241,253.343505 70.5872014,252.519699 70.5871242,251.69604 C70.5870471,251.537167 70.5871242,251.37822 70.5871242,251.192561 L68.6400756,251.192561 L68.6400756,251.537241 C68.6400756,252.410119 68.6440087,253.282923 68.6389188,254.155801 C68.6339831,254.999457 68.0264318,255.598421 67.1848212,255.600119 C66.3446759,255.601963 65.7200039,255.002482 65.7134487,254.170042 C65.7057367,253.187658 65.711675,252.2052 65.711675,251.164521 Z M66.3799198,235.027415 C66.0907198,234.517443 65.8045274,234.025181 65.5329108,233.525614 C65.4487729,233.371021 65.2076958,233.17171 65.4866388,233.03099 C65.7296439,232.908497 65.788178,233.178499 65.8764033,233.329698 C66.1698449,233.832291 66.4589678,234.337097 66.7633604,234.864558 C67.6830935,234.498331 68.6270423,234.310459 69.6129444,234.31223 C70.5883582,234.313853 71.5237466,234.488222 72.4589809,234.870461 C72.7510343,234.366319 73.0408513,233.866235 73.3303598,233.365855 C73.3738554,233.290736 73.3972999,233.189125 73.4630833,233.145514 C73.5530823,233.085891 73.6747777,233.070174 73.782977,233.035565 C73.7936967,233.132601 73.8469866,233.250224 73.8082724,233.323278 C73.5765268,233.760639 73.3232647,234.187596 73.0781002,234.618464 C73.0051447,234.746639 72.9350426,234.876217 72.8484369,235.032654 C74.8750734,236.146387 76.0794564,237.752161 76.1841854,240.060502 L63.1165098,240.060502 C62.7403956,238.573385 64.1051882,236.454835 66.3799198,235.027415 Z M62.5508115,244.654094 C62.5508115,245.600616 62.5538963,246.547138 62.5498861,247.493585 C62.5464157,248.321524 61.9210496,248.946759 61.0987961,248.953621 C60.2790876,248.960336 59.641768,248.339677 59.6389145,247.506425 C59.6323593,245.588883 59.6331305,243.671267 59.6385289,241.753652 C59.6409196,240.909848 60.2545635,240.304242 61.0866112,240.302766 C61.9394041,240.30129 62.5476496,240.911619 62.5501945,241.777708 C62.5528937,242.736479 62.5508115,243.695323 62.5508115,244.654094 Z M79.592257,244.630238 C79.592257,245.589156 79.5947248,246.548149 79.5914858,247.507141 C79.5887095,248.314787 78.9734461,248.936553 78.1681591,248.953451 C77.3653399,248.970202 76.6832135,248.36895 76.675193,247.56765 C76.6556816,245.612917 76.6555274,243.657889 76.6734192,241.70323 C76.680977,240.871159 77.3492989,240.280902 78.1825034,240.303113 C79.002289,240.325029 79.5891722,240.926207 79.59164,241.753334 C79.5944163,242.712253 79.592257,243.671245 79.592257,244.630238 Z M67.1732995,237.278775 C67.1743791,236.989512 66.9484947,236.770278 66.6420969,236.763342 C66.3329228,236.756258 66.0973983,236.965456 66.0871414,237.256342 C66.0768844,237.545678 66.3418687,237.808301 66.6387036,237.802988 C66.9210399,237.798044 67.1722198,237.551655 67.1732995,237.278775 Z M72.6186193,237.803962 C72.902498,237.795034 73.1418014,237.548202 73.1386394,237.267573 C73.1352462,236.965176 72.8811358,236.744097 72.5590055,236.763357 C72.2635588,236.78114 72.0382142,237.02384 72.0555662,237.305502 C72.0723012,237.576316 72.3392906,237.812744 72.6186193,237.803962 Z" id="Android_ico"></path>
                </g>
            </g>
        </g>
    </g>
</svg>