<?xml version="1.0" encoding="UTF-8" standalone="no"?>
<svg width="17px" height="20px" viewBox="0 0 17 20" version="1.1" xmlns="http://www.w3.org/2000/svg" xmlns:xlink="http://www.w3.org/1999/xlink">
    <!-- Generator: Sketch 44.1 (41455) - http://www.bohemiancoding.com/sketch -->
    <title>Apple_ico</title>
    <desc>Created with Sketch.</desc>
    <defs></defs>
    <g id="NDW" stroke="none" stroke-width="1" fill="none" fill-rule="evenodd">
        <g id="home-larg" transform="translate(-390.000000, -386.000000)" fill="#DFE8F3">
            <g id="Group-4" transform="translate(37.000000, 151.000000)">
                <g id="Group-2-Copy-5" transform="translate(205.000000, 0.000000)">
                    <path d="M164.310927,241.60844 C162.705149,242.587299 161.910958,243.908279 162.037546,245.670674 C162.163935,247.43006 163.166007,248.622616 164.84264,249.443859 C164.499138,250.140648 164.194508,250.846592 163.8126,251.511756 C163.291726,252.419105 162.669888,253.264099 161.856027,253.963641 C161.13162,254.586295 160.298823,254.749865 159.372557,254.498333 C159.084587,254.420037 158.796818,254.330601 158.523434,254.214982 C157.392431,253.736756 156.262499,253.736052 155.123065,254.182268 C154.83543,254.294942 154.537357,254.382969 154.247514,254.490842 C153.255411,254.859851 152.416726,254.577525 151.687302,253.915434 C150.557637,252.890289 149.723636,251.663226 149.097516,250.306651 C148.312959,248.606803 147.895658,246.831093 148.022447,244.966074 C148.164224,242.880509 149.250132,240.857746 151.481628,240.024148 C152.619121,239.599122 153.737078,239.680234 154.864802,240.084966 C156.809266,240.782908 156.265911,240.75077 158.158722,240.08503 C159.973118,239.446947 161.674707,239.540352 163.258674,240.634702 C163.637571,240.896542 163.939725,241.260045 164.310927,241.60844 Z M160.507527,235.008675 C160.690988,237.375991 158.617861,239.629992 156.428917,239.465334 C155.943303,237.205251 158.582868,234.838383 160.507527,235.008675 Z" id="Apple_ico"></path>
                </g>
            </g>
        </g>
    </g>
</svg>