<?xml version="1.0" encoding="UTF-8" standalone="no"?>
<svg width="18px" height="18px" viewBox="0 0 18 18" version="1.1" xmlns="http://www.w3.org/2000/svg" xmlns:xlink="http://www.w3.org/1999/xlink">
    <!-- Generator: Sketch 44.1 (41455) - http://www.bohemiancoding.com/sketch -->
    <title>Fill 1</title>
    <desc>Created with Sketch.</desc>
    <defs></defs>
    <g id="NDW" stroke="none" stroke-width="1" fill="none" fill-rule="evenodd">
        <g id="home-larg" transform="translate(-392.000000, -264.000000)" fill="#FF9F75">
            <g id="Group-4" transform="translate(37.000000, 151.000000)">
                <g id="Group-2-Copy-5" transform="translate(205.000000, 0.000000)">
                    <g id="Group" transform="translate(127.000000, 113.000000)">
                        <path d="M33.2613646,0.844749442 L34.8355442,4.02898302 C35.0567033,4.47632364 35.4841073,4.78644403 35.9785577,4.85807218 L39.4985609,5.36872458 C40.7436892,5.54927045 41.2409612,7.07693531 40.3399328,7.95377658 L37.7928414,10.4324594 C37.4350366,10.7805401 37.2717874,11.2822054 37.3563008,11.7739448 L37.9575686,15.2736641 C38.1702629,16.5117313 36.8685684,17.4559084 35.7548458,16.8712134 L32.6063522,15.218937 C32.1641684,14.9868832 31.6358589,14.9868832 31.1935408,15.218937 L28.0451815,16.8712134 C26.9314588,17.4559084 25.6298988,16.5117313 25.8425931,15.2736641 L26.4438609,11.7739448 C26.5282399,11.2822054 26.3649907,10.7805401 26.0071859,10.4324594 L23.4600945,7.95377658 C22.5590661,7.07693531 23.0563381,5.54927045 24.3014664,5.36872458 L27.8214696,4.85807218 C28.31592,4.78644403 28.7434584,4.47632364 28.9644831,4.02898302 L30.5386627,0.844749442 C31.0955912,-0.281583147 32.7044361,-0.281583147 33.2613646,0.844749442" id="Fill-1"></path>
                    </g>
                </g>
            </g>
        </g>
    </g>
</svg>