<?xml version="1.0" encoding="UTF-8" standalone="no"?>
<svg width="23px" height="23px" viewBox="0 0 23 23" version="1.1" xmlns="http://www.w3.org/2000/svg" xmlns:xlink="http://www.w3.org/1999/xlink">
    <!-- Generator: Sketch 44.1 (41455) - http://www.bohemiancoding.com/sketch -->
    <title>Web_ico</title>
    <desc>Created with Sketch.</desc>
    <defs></defs>
    <g id="NDW" stroke="none" stroke-width="1" fill="none" fill-rule="evenodd">
        <g id="home-larg" transform="translate(-257.000000, -384.000000)" fill="#DFE8F3">
            <g id="Group-4" transform="translate(37.000000, 151.000000)">
                <g id="Group-2-Copy-5" transform="translate(205.000000, 0.000000)">
                    <path d="M33.4658284,247.516176 C33.3747024,247.925699 33.2930441,248.295759 33.209433,248.665479 C33.1887817,248.756861 33.1672429,248.84864 33.1367689,248.937249 C33.071028,249.128224 33.1691956,249.206697 33.3489031,249.208905 C33.8118113,249.214624 34.2750153,249.217455 34.7375684,249.204489 C34.8149663,249.202337 34.920708,249.1323 34.9607087,249.064924 C35.2187018,248.630602 35.4583513,248.186315 35.7135041,247.750351 C35.7649251,247.662422 35.8548677,247.532708 35.9309046,247.530217 C36.499081,247.51159 37.0681451,247.520082 37.6936007,247.520082 C37.1194478,249.226061 36.1898444,250.672159 34.9073941,251.888216 C32.723625,253.958932 30.0710896,255.084398 26.9928657,255.151605 C21.0572504,255.281205 16.8258686,251.21751 15.7672686,247.522913 C16.3548537,247.522913 16.9354564,247.496982 17.5094318,247.544315 C17.627718,247.554054 17.7278975,247.833637 17.8249999,247.99517 C18.0371341,248.348188 18.2334692,248.710151 18.4560769,249.056827 C18.5050719,249.133093 18.634956,249.200809 18.7302833,249.204262 C19.1632501,249.220059 19.5972228,249.210604 20.0307813,249.211906 C20.243448,249.212529 20.3391895,249.138075 20.2818511,248.917149 C20.1832694,248.537238 20.0983565,248.153929 20.0137395,247.770847 C19.9982363,247.700753 20.0115501,247.624827 20.0115501,247.519573 C20.5619156,247.519573 21.1008607,247.513741 21.6392732,247.527783 C21.6998661,247.529311 21.7870867,247.634113 21.8112883,247.706528 C21.9457287,248.108124 22.0831278,248.5104 22.1808811,248.920886 C22.2303495,249.12845 22.3464464,249.173632 22.528935,249.176349 C23.2287708,249.186937 23.9286065,249.205904 24.6285014,249.207207 C26.5605498,249.21083 28.4926574,249.208282 30.4247649,249.204659 C30.6211592,249.204262 30.8200979,249.194071 31.0125867,249.160609 C31.087381,249.147587 31.1852527,249.06917 31.2082709,249.000718 C31.3491019,248.581683 31.4860276,248.160327 31.592716,247.732459 C31.6340186,247.566906 31.7033098,247.513571 31.866094,247.51476 C32.3686479,247.51861 32.8712018,247.516176 33.4658284,247.516176 L33.4658284,247.516176 Z M31.7936074,251.903559 L31.8710053,251.963915 C31.9088759,251.960518 31.9567466,251.970256 31.9830784,251.951798 C32.3953348,251.662817 32.8067035,251.372532 33.2105573,251.072963 C33.2350548,251.054788 33.1920362,250.90339 33.1854089,250.90373 C32.9080072,250.917828 32.5388286,250.845073 32.3754527,250.987355 C32.1104773,251.218133 31.980534,251.590854 31.7936074,251.903559 L31.7936074,251.903559 Z M21.5309872,251.992677 C21.5641239,251.963349 21.5973198,251.93402 21.6304565,251.904748 C21.4369026,251.587344 21.2475499,251.267505 21.0450608,250.955479 C21.0168354,250.912053 20.9248219,250.891217 20.8605603,250.887537 C20.6845806,250.877458 20.5071808,250.875137 20.3312603,250.884876 C20.2752238,250.88799 20.2219683,250.938437 20.1674702,250.967256 C20.1938613,251.011475 20.2101929,251.067018 20.248241,251.098045 C20.484281,251.290832 20.7178949,251.487412 20.9668345,251.664006 C21.1429917,251.788906 21.3421079,251.884139 21.5309872,251.992677 L21.5309872,251.992677 Z M23.1845688,250.885102 L23.6514415,250.885102 C25.7216582,250.885102 27.791934,250.884083 29.8620916,250.88799 C29.9715611,250.888216 30.0809714,250.93051 30.1903818,250.953271 C30.1503219,251.062319 30.1306765,251.183992 30.0670067,251.278432 C29.4962266,252.125052 28.798462,252.841505 27.8010466,253.235911 C27.2063608,253.471161 26.6025033,253.50802 25.9743849,253.342014 C24.7092722,253.007624 23.9354705,252.127543 23.2508422,251.142661 C23.2120249,251.086721 23.2139184,251.004964 23.1845688,250.885102 Z M33.4658284,240.63845 C32.8712018,240.63845 32.3686479,240.636015 31.866094,240.639865 C31.7033098,240.641054 31.6340186,240.58772 31.592716,240.422167 C31.4860276,239.994299 31.3491019,239.572943 31.2082709,239.153908 C31.1852527,239.085456 31.087381,239.007039 31.0125867,238.994016 C30.8200979,238.960555 30.6211592,238.950363 30.4247649,238.949967 C28.4926574,238.946343 26.5605498,238.943796 24.6285014,238.947419 C23.9286065,238.948721 23.2287708,238.967689 22.528935,238.978276 C22.3464464,238.980994 22.2303495,239.026176 22.1808811,239.23374 C22.0831278,239.644226 21.9457287,240.046501 21.8112883,240.448098 C21.7870867,240.520513 21.6998661,240.625314 21.6392732,240.626843 C21.1008607,240.640885 20.5619156,240.635053 20.0115501,240.635053 C20.0115501,240.529799 19.9982363,240.453873 20.0137395,240.383779 C20.0983565,240.000697 20.1832694,239.617388 20.2818511,239.237477 C20.3391895,239.016551 20.243448,238.942097 20.0307813,238.94272 C19.5972228,238.944022 19.1632501,238.934567 18.7302833,238.950363 C18.634956,238.953817 18.5050719,239.021533 18.4560769,239.097798 C18.2334692,239.444475 18.0371341,239.806438 17.8249999,240.159456 C17.7278975,240.320989 17.627718,240.600572 17.5094318,240.610311 C16.9354564,240.657644 16.3548537,240.631712 15.7672686,240.631712 C16.8258686,236.937115 21.0572504,232.873421 26.9928657,233.003021 C30.0710896,233.070228 32.723625,234.195694 34.9073941,236.26641 C36.1898444,237.482467 37.1194478,238.928565 37.6936007,240.634543 C37.0681451,240.634543 36.499081,240.643036 35.9309046,240.624409 C35.8548677,240.621917 35.7649251,240.492204 35.7135041,240.404275 C35.4583513,239.968311 35.2187018,239.524024 34.9607087,239.089702 C34.920708,239.022326 34.8149663,238.952288 34.7375684,238.950137 C34.2750153,238.937171 33.8118113,238.940002 33.3489031,238.945721 C33.1691956,238.947929 33.071028,239.026402 33.1367689,239.217377 C33.1672429,239.305985 33.1887817,239.397764 33.209433,239.489147 C33.2930441,239.858867 33.3747024,240.228927 33.4658284,240.63845 Z M31.7936074,236.251066 C31.980534,236.563772 32.1104773,236.936493 32.3754527,237.16727 C32.5388286,237.309553 32.9080072,237.236798 33.1854089,237.250896 C33.1920362,237.251236 33.2350548,237.099837 33.2105573,237.081663 C32.8067035,236.782093 32.3953348,236.491809 31.9830784,236.202827 C31.9567466,236.18437 31.9088759,236.194108 31.8710053,236.190711 L31.7936074,236.251066 Z M21.5309872,236.161949 C21.3421079,236.270487 21.1429917,236.365719 20.9668345,236.49062 C20.7178949,236.667214 20.484281,236.863794 20.248241,237.056581 C20.2101929,237.087608 20.1938613,237.143151 20.1674702,237.18737 C20.2219683,237.216189 20.2752238,237.266636 20.3312603,237.26975 C20.5071808,237.279489 20.6845806,237.277167 20.8605603,237.267089 C20.9248219,237.263409 21.0168354,237.242573 21.0450608,237.199147 C21.2475499,236.887121 21.4369026,236.567282 21.6304565,236.249877 C21.5973198,236.220606 21.5641239,236.191277 21.5309872,236.161949 Z M23.1845688,237.269524 L23.6514415,237.269524 C25.7216582,237.269524 27.791934,237.270543 29.8620916,237.266636 C29.9715611,237.26641 30.0809714,237.224116 30.1903818,237.201355 C30.1503219,237.092307 30.1306765,236.970634 30.0670067,236.876194 C29.4962266,236.029574 28.798462,235.313121 27.8010466,234.918715 C27.2063608,234.683464 26.6025033,234.646606 25.9743849,234.812612 C24.7092722,235.147002 23.9354705,236.027083 23.2508422,237.011965 C23.2120249,237.067905 23.2139184,237.149662 23.1845688,237.269524 Z M34.3793779,243.895817 C34.0813249,244.51364 33.8075328,245.06924 33.5459302,245.629935 C33.4531474,245.828723 33.3142098,245.912972 33.0874008,245.909235 C32.2602846,245.895307 32.3595764,245.990822 32.0544227,245.278389 C31.667729,244.375491 31.2718635,243.476159 30.8952292,242.569411 C30.8688973,242.506111 30.964047,242.320515 31.0107935,242.317741 C31.35938,242.297245 31.7243573,242.254667 32.0533576,242.334783 C32.1962597,242.369603 32.2878591,242.669456 32.3655528,242.862582 C32.5559706,243.336141 32.7247312,243.817683 32.9021902,244.295998 C32.9324866,244.294979 32.9627831,244.29396 32.9930203,244.292941 C33.2156281,243.812757 33.4389459,243.332971 33.6601335,242.852221 C33.7145133,242.734115 33.7352829,242.590416 33.8197224,242.499543 C33.913807,242.398139 34.0561765,242.328045 34.190617,242.274088 C34.2758848,242.23989 34.3851769,242.262198 34.4834036,242.255347 C34.8001551,242.233435 35.0201001,242.317854 35.1389189,242.643411 C35.3016439,243.089397 35.5186303,243.517264 35.7152612,243.951756 C35.7653213,244.062333 35.8261509,244.168436 35.9170402,244.344407 C36.0759781,243.969252 36.2128446,243.652527 36.3443263,243.33382 C36.4450975,243.089454 36.5419041,242.843558 36.6351603,242.596474 C36.7119664,242.3931 36.8446317,242.261971 37.0822101,242.259084 C37.2989006,242.256423 37.5176622,242.240909 37.7318674,242.26333 C37.9894462,242.290224 38.056844,242.430072 37.9538243,242.656094 C37.5077211,243.634748 37.0636891,244.614195 36.6149232,245.591604 C36.5231463,245.791468 36.3916645,245.91518 36.1223695,245.910084 C35.2609922,245.893835 35.4234213,245.98533 35.0808705,245.256138 C34.8978493,244.866601 34.7316923,244.469931 34.5507421,244.079432 C34.5231676,244.019869 34.4567167,243.976782 34.3793779,243.895817 Z M26.5137084,243.890569 C26.4354229,243.987047 26.3695636,244.044345 26.3341784,244.115571 C26.079499,244.628084 25.8237545,245.140427 25.5842233,245.659563 C25.4987779,245.844933 25.3687163,245.911403 25.1713753,245.907667 C24.2131323,245.889492 24.4465687,246.022489 24.0553187,245.161432 C23.6939509,244.366109 23.365424,243.557198 23.0223997,242.754288 C22.87003,242.397703 22.9586707,242.270028 23.3666666,242.258874 C24.1531312,242.237359 24.1588709,242.235207 24.4716579,243.005448 C24.6412469,243.423125 24.7873444,243.84952 24.9645666,244.327495 C25.0409586,244.236905 25.1139186,244.179834 25.1472328,244.106399 C25.3795449,243.594 25.6010876,243.077184 25.8316245,242.564106 C25.9140521,242.380718 26.0460072,242.253382 26.2783193,242.263573 C26.3963097,242.268669 26.515306,242.267367 26.6331189,242.25927 C26.9311719,242.238605 27.1051397,242.382529 27.2105855,242.634539 C27.4382821,243.178418 27.6704758,243.720429 27.983322,244.284748 C28.0694775,244.099945 28.1609585,243.917236 28.2407233,243.729885 C28.4168805,243.316002 28.5810848,242.897307 28.7649936,242.486651 C28.8016807,242.404894 28.899789,242.299356 28.9781337,242.292336 C29.2703878,242.266121 29.5687366,242.25225 29.859748,242.280899 C30.0708171,242.301678 30.1154333,242.473969 30.0354318,242.648354 C29.5713402,243.659621 29.1073078,244.670944 28.6254643,245.674511 C28.5760551,245.777444 28.4100165,245.830552 28.2948663,245.901891 C28.2736825,245.915084 28.2368771,245.905685 28.2073499,245.905685 C27.2688114,245.905798 27.4903541,245.968928 27.1195187,245.22643 C26.9101064,244.807225 26.7315823,244.373922 26.5137084,243.890569 Z M18.5253679,243.859547 C18.3269026,244.260861 18.1538224,244.604932 17.9863044,244.951496 C17.8796752,245.172025 17.7875433,245.398953 17.6774228,245.617784 C17.5833974,245.804796 17.4419154,245.910447 17.1992481,245.912825 C16.4469262,245.920072 16.4421924,245.930659 16.0708244,245.080473 C15.7220604,244.282319 15.3840658,243.479862 15.0431718,242.678538 C14.9348857,242.42398 15.0310414,242.283169 15.3233546,242.259389 C15.343,242.257804 15.3628228,242.258597 15.3825273,242.257917 C16.25639,242.226437 16.2685204,242.235326 16.5465139,243.02578 C16.6763388,243.394877 16.8075247,243.763635 16.9451605,244.130071 C16.96522,244.183576 17.0246294,244.223492 17.0658136,244.269636 C17.1097198,244.226323 17.1709636,244.190314 17.1948693,244.138508 C17.4378917,243.61167 17.6819791,243.08506 17.9099716,242.552278 C18.0034645,242.333843 18.1568402,242.249311 18.3898624,242.265561 C18.4095077,242.26692 18.4299815,242.269071 18.4489167,242.265504 C18.9121208,242.176952 19.1725991,242.361416 19.323667,242.787302 C19.4826049,243.235552 19.7000055,243.664949 19.8972873,244.100403 C19.9243293,244.160136 19.9827919,244.20679 20.0267572,244.259502 C20.0697758,244.202657 20.1271142,244.15119 20.1535644,244.088004 C20.3661719,243.580021 20.5845193,243.073793 20.7761205,242.558506 C20.8573647,242.339845 21.0131664,242.266353 21.2202118,242.254294 C21.4066058,242.243479 21.5952484,242.249368 21.7817609,242.262617 C22.0826541,242.284018 22.1818868,242.439267 22.0583933,242.706734 C21.6569656,243.575831 21.2386145,244.437907 20.8465952,245.310911 C20.5441635,245.984504 20.6872431,245.910107 19.7575805,245.894537 C19.629945,245.892442 19.4483439,245.762955 19.3889937,245.646887 C19.1454388,245.170893 18.9411154,244.676612 18.7184485,244.190653 C18.6766133,244.099214 18.6169672,244.015249 18.5253679,243.859547 Z" id="Web_ico"></path>
                </g>
            </g>
        </g>
    </g>
</svg>