<?xml version="1.0" encoding="UTF-8" standalone="no"?>
<svg width="26px" height="23px" viewBox="0 0 26 23" version="1.1" xmlns="http://www.w3.org/2000/svg" xmlns:xlink="http://www.w3.org/1999/xlink">
    <!-- Generator: Sketch 44.1 (41455) - http://www.bohemiancoding.com/sketch -->
    <title>Windows_ico</title>
    <desc>Created with Sketch.</desc>
    <defs></defs>
    <g id="NDW" stroke="none" stroke-width="1" fill="none" fill-rule="evenodd">
        <g id="home-larg" transform="translate(-343.000000, -384.000000)" fill="#DFE8F3">
            <g id="Group-4" transform="translate(37.000000, 151.000000)">
                <g id="Group-2-Copy-5" transform="translate(205.000000, 0.000000)">
                    <path d="M113.703107,243.045131 C110.670976,240.800914 107.49614,241.167639 104.200856,242.493608 C104.591209,241.20696 104.956805,240.013548 105.314982,238.818143 C105.72484,237.450062 106.133698,236.081503 106.529969,234.709834 C106.616575,234.410026 106.754528,234.213982 107.081197,234.093707 C108.360868,233.62234 109.668962,233.267101 111.040656,233.188779 C112.655165,233.096579 114.120467,233.558694 115.474907,234.376607 C116.166006,234.793978 116.178759,234.799162 115.95295,235.557178 C115.217589,238.025752 114.47131,240.491375 113.703107,243.045131 Z M117.514777,235.725434 C120.528737,237.911507 123.690903,237.582587 126.956513,236.275202 C126.937591,236.425386 126.939092,236.537525 126.908084,236.640731 C126.144549,239.185952 125.379098,241.730695 124.605227,244.273125 C124.577053,244.365484 124.474776,244.469169 124.380585,244.506575 C122.746988,245.154924 121.067713,245.610339 119.275408,245.507532 C117.752257,245.420277 116.435076,244.801359 115.203169,243.99198 C115.128483,243.942929 115.086305,243.764352 115.114395,243.669042 C115.595439,242.033614 116.091903,240.402334 116.580782,238.76898 C116.845851,237.883433 117.101919,236.995413 117.364988,236.109227 C117.39758,235.999321 117.44826,235.894281 117.514777,235.725434 Z M114.597509,245.348049 C117.654314,247.572326 120.823815,247.233037 124.105929,245.901725 C123.813436,246.901645 123.547282,247.832176 123.268792,248.759357 C122.755657,250.467842 122.238604,252.17529 121.710632,253.879628 C121.675123,253.99432 121.552007,254.137564 121.439477,254.169148 C120.266335,254.49759 119.104946,254.914003 117.905464,255.095691 C115.847255,255.407383 113.984098,254.804576 112.31991,253.631742 C112.243223,253.577746 112.191376,253.406746 112.218633,253.314945 C112.89131,251.049354 113.576907,248.787351 114.258503,246.524312 C114.364948,246.170747 114.463224,245.814949 114.597509,245.348049 Z M101.401894,251.880299 C101.605448,251.201244 101.810168,250.522588 102.012471,249.843213 C102.559365,248.006478 103.10851,246.170221 103.647819,244.331491 C103.720338,244.084163 103.830283,243.93079 104.102772,243.82878 C105.604,243.266729 107.132653,242.850873 108.763749,242.879666 C110.387093,242.908378 111.787795,243.530886 113.09789,244.380622 C113.182495,244.435495 113.230091,244.638957 113.198333,244.747267 C112.628433,246.686411 112.043946,248.621647 111.461792,250.557442 C111.257322,251.237135 111.050517,251.91619 110.829292,252.646849 C109.430924,251.703318 107.944533,251.074111 106.245502,251.040373 C104.5889,251.007513 103.03224,251.495868 101.482832,252.008868 C101.455825,251.965959 101.428901,251.923129 101.401894,251.880299 Z" id="Windows_ico"></path>
                </g>
            </g>
        </g>
    </g>
</svg>